<svg width="581" height="113" viewBox="0 0 581 113" fill="none" xmlns="http://www.w3.org/2000/svg">
<path d="M30.8798 105.693L9.56885 80.634L17.0171 77.7198L30.4051 94.3688L27.4392 73.6421L34.8328 70.7492L47.6206 87.6331L45.2003 66.6928L52.7577 63.7359L55.5981 96.0215L48.2318 98.9036L35.4289 82.4345L38.3281 102.779L30.8798 105.693Z" fill="#A52A2A"/>
<path d="M62.561 48.4108L67.7726 63.317C69.2756 59.5699 71.7836 57.1295 75.2967 55.9959C77.0997 55.4142 78.8421 55.2212 80.524 55.4171C82.2059 55.613 83.5898 56.1103 84.6757 56.9088C85.7801 57.7014 86.6817 58.6825 87.3802 59.8522C88.0974 61.016 88.9168 62.9161 89.8386 65.5526L95.8624 82.7818L88.0278 85.3099L82.6034 69.7953C81.527 66.7163 80.695 64.81 80.1075 64.0763C79.52 63.3426 78.7614 62.859 77.8318 62.6256C76.9142 62.3677 75.8885 62.4217 74.7547 62.7875C73.4536 63.2074 72.4014 63.8956 71.5983 64.8524C70.7951 65.8091 70.3743 67.0015 70.3358 68.4296C70.3094 69.8333 70.7281 71.7704 71.5919 74.2409L76.7358 88.9535L68.9012 91.4816L54.7264 50.9389L62.561 48.4108Z" fill="#A52A2A"/>
<path d="M93.3696 46.9742L91.1686 39.682L99.099 37.4728L101.3 44.765L93.3696 46.9742ZM103.579 80.799L94.5887 51.013L102.519 48.8038L111.51 78.5898L103.579 80.799Z" fill="#A52A2A"/>
<path d="M142.623 48.4308L135.088 51.7153C134.42 50.2077 133.509 49.1688 132.356 48.5986C131.221 48.0238 129.903 47.9138 128.401 48.2685C126.405 48.7399 124.985 49.8076 124.141 51.4718C123.311 53.1124 123.308 55.5411 124.131 58.7578C125.046 62.3339 126.291 64.7185 127.867 65.9116C129.461 67.1001 131.275 67.4542 133.309 66.9738C134.829 66.6147 135.966 65.8949 136.717 64.8144C137.464 63.7151 137.768 62.0681 137.63 59.8736L145.84 59.3489C145.943 63.137 145.07 66.2226 143.22 68.6057C141.371 70.9888 138.498 72.6405 134.601 73.5609C130.173 74.6069 126.281 74.0513 122.927 71.8938C119.592 69.7319 117.295 66.1912 116.036 61.2716C114.763 56.2953 115.094 52.1138 117.029 48.7272C118.959 45.3217 122.177 43.087 126.682 42.023C130.369 41.152 133.5 41.2553 136.074 42.3329C138.661 43.3871 140.845 45.4198 142.623 48.4308Z" fill="#A52A2A"/>
<path d="M155.823 24.5364L158.872 40.0303C160.886 36.5086 163.709 34.4179 167.341 33.7583C169.205 33.4197 170.954 33.4593 172.589 33.8769C174.223 34.2946 175.521 34.972 176.482 35.909C177.462 36.8426 178.214 37.9365 178.74 39.1908C179.284 40.4415 179.826 42.4371 180.366 45.1776L183.89 63.086L175.79 64.5571L172.616 48.4309C171.987 45.2305 171.433 43.2271 170.956 42.4206C170.479 41.6141 169.797 41.0332 168.911 40.6781C168.041 40.3002 167.019 40.2178 165.847 40.4307C164.502 40.675 163.365 41.2189 162.436 42.0624C161.508 42.906 160.924 44.0342 160.684 45.4473C160.46 46.8377 160.601 48.8168 161.106 51.3848L164.116 66.6774L156.016 68.1485L147.723 26.0075L155.823 24.5364Z" fill="#A52A2A"/>
<path d="M233.329 35.2458L225.418 37.5307C224.967 35.9474 224.21 34.7981 223.148 34.0826C222.105 33.365 220.816 33.0851 219.282 33.2427C217.242 33.4522 215.688 34.3283 214.622 35.8711C213.573 37.3924 213.232 39.803 213.599 43.103C214.007 46.7717 214.908 49.3003 216.3 50.6887C217.712 52.0751 219.458 52.6616 221.536 52.4481C223.091 52.2885 224.315 51.721 225.208 50.7458C226.1 49.7511 226.63 48.1554 226.798 45.9589L234.994 46.5014C234.569 50.2753 233.276 53.2255 231.115 55.3518C228.954 57.4781 225.882 58.7458 221.899 59.1548C217.373 59.6197 213.6 58.5641 210.582 55.9879C207.583 53.4098 205.803 49.5972 205.241 44.5502C204.673 39.445 205.582 35.3367 207.967 32.2253C210.35 29.0945 213.844 27.2926 218.449 26.8198C222.218 26.4327 225.301 26.9407 227.697 28.3438C230.111 29.7256 231.988 32.0262 233.329 35.2458Z" fill="#A52A2A"/>
<path d="M248.887 34.6207L241.352 33.6548C242.025 30.6088 243.346 28.3122 245.314 26.7648C247.283 25.2175 250.286 24.3411 254.324 24.1356C257.991 23.949 260.746 24.2489 262.589 25.0351C264.431 25.8019 265.75 26.8397 266.546 28.1486C267.36 29.437 267.866 31.8656 268.062 35.4344L268.504 45.0337C268.654 47.7639 268.892 49.7758 269.218 51.0696C269.562 52.3428 270.136 53.7021 270.939 55.1475L262.805 55.5614C262.56 55.0262 262.252 54.2303 261.881 53.1736C261.718 52.693 261.602 52.3762 261.535 52.2232C260.206 53.6598 258.761 54.76 257.199 55.524C255.637 56.2879 253.949 56.716 252.135 56.8083C248.936 56.9711 246.362 56.2318 244.413 54.5905C242.484 52.9481 241.446 50.8009 241.3 48.1486C241.203 46.3935 241.537 44.812 242.3 43.4042C243.063 41.9769 244.175 40.8643 245.637 40.0663C247.118 39.2478 249.267 38.4931 252.085 37.8021C255.888 36.885 258.513 36.0768 259.961 35.3773L259.916 34.5582C259.829 32.9786 259.377 31.8771 258.56 31.2537C257.742 30.6109 256.251 30.3445 254.085 30.4547C252.623 30.5291 251.498 30.8797 250.711 31.5065C249.923 32.1137 249.315 33.1518 248.887 34.6207ZM260.256 40.7305C259.222 41.1351 257.578 41.6392 255.322 42.2429C253.067 42.8466 251.601 43.4003 250.925 43.9041C249.894 44.7192 249.411 45.7119 249.475 46.882C249.539 48.0326 250.022 49.0053 250.927 49.8002C251.831 50.5951 252.947 50.9588 254.273 50.8913C255.756 50.8159 257.143 50.2564 258.435 49.2128C259.389 48.4211 259.993 47.481 260.246 46.3926C260.421 45.6796 260.455 44.3383 260.347 42.3686L260.256 40.7305Z" fill="#A52A2A"/>
<path d="M293.359 23.8924L293.417 30.4546L287.792 30.5006L287.903 43.0391C287.925 45.5781 287.987 47.062 288.089 47.4909C288.21 47.9001 288.457 48.2399 288.83 48.5103C289.223 48.7805 289.693 48.9134 290.24 48.9089C291.002 48.9027 292.103 48.63 293.544 48.0909L294.303 54.4716C292.396 55.3075 290.232 55.7354 287.81 55.7552C286.326 55.7673 284.986 55.5341 283.79 55.0555C282.594 54.5575 281.71 53.9201 281.136 53.1435C280.583 52.3473 280.192 51.2762 279.965 49.9303C279.781 48.9748 279.676 47.042 279.651 44.1319L279.531 30.568L275.752 30.5989L275.694 24.0366L279.473 24.0058L279.418 17.8244L287.637 12.9524L287.734 23.9383L293.359 23.8924Z" fill="#A52A2A"/>
<path d="M327.269 34.3677L319.899 32.5776C320.932 29.6262 322.518 27.4904 324.658 26.1703C326.799 24.8502 329.887 24.3106 333.923 24.5516C337.588 24.7704 340.289 25.3719 342.026 26.3561C343.764 27.3207 344.951 28.497 345.585 29.8849C346.24 31.2545 346.452 33.7227 346.222 37.2894L345.514 46.8735C345.337 49.6022 345.333 51.627 345.502 52.948C345.692 54.2507 346.1 55.6642 346.725 57.1886L338.595 56.7032C338.416 56.1447 338.205 55.3201 337.963 54.2295C337.858 53.7341 337.781 53.4067 337.733 53.2472C336.241 54.5278 334.673 55.4614 333.03 56.0481C331.387 56.6348 329.659 56.8741 327.846 56.7658C324.649 56.5749 322.18 55.5569 320.44 53.7117C318.72 51.8676 317.945 49.6202 318.117 46.9695C318.23 45.2153 318.75 43.6811 319.677 42.3668C320.605 41.0331 321.843 40.0504 323.39 39.4189C324.959 38.769 327.184 38.2562 330.066 37.8804C333.954 37.3886 336.658 36.875 338.18 36.3398L338.233 35.5212C338.335 33.9425 338.018 32.7985 337.281 32.0892C336.545 31.3605 335.095 30.9316 332.931 30.8024C331.469 30.7151 330.31 30.9393 329.453 31.4751C328.597 31.9915 327.87 32.9557 327.269 34.3677ZM337.834 41.6899C336.759 41.9779 335.065 42.2974 332.752 42.6485C330.439 42.9996 328.917 43.3881 328.185 43.8139C327.064 44.5101 326.465 45.4428 326.389 46.6123C326.315 47.7622 326.68 48.7818 327.483 49.6711C328.287 50.5604 329.351 51.0447 330.677 51.1238C332.159 51.2123 333.604 50.8094 335.012 49.9152C336.055 49.2339 336.766 48.3666 337.148 47.3132C337.407 46.6244 337.601 45.2957 337.728 43.3271L337.834 41.6899Z" fill="#A52A2A"/>
<path d="M362.896 58.8709L354.71 58.0042L358.255 27.0936L365.859 27.8986L365.355 32.2936C366.895 30.3551 368.217 29.1105 369.322 28.5598C370.446 28.0111 371.669 27.8066 372.99 27.9465C374.854 28.1439 376.592 28.8483 378.203 30.0597L374.85 36.9223C373.573 35.8837 372.343 35.3017 371.158 35.1763C370.012 35.055 369.004 35.2723 368.134 35.8284C367.267 36.365 366.505 37.4333 365.85 39.0333C365.214 40.6353 364.595 44.0656 363.991 49.3241L362.896 58.8709Z" fill="#A52A2A"/>
<path d="M401.797 54.0432L409.682 56.6386C408.149 59.4471 406.124 61.4595 403.607 62.6759C401.113 63.8758 398.176 64.2182 394.797 63.7028C389.449 62.8871 385.779 60.5395 383.787 56.66C382.222 53.5566 381.791 49.8756 382.494 45.617C383.335 40.5297 385.325 36.7537 388.464 34.2889C391.606 31.8048 395.214 30.8734 399.288 31.4948C403.864 32.1927 407.225 34.2561 409.37 37.6849C411.518 41.0944 412.02 45.9025 410.876 52.109L390.487 48.9992C390.147 51.4168 390.493 53.3957 391.525 54.936C392.56 56.4571 394.014 57.3604 395.887 57.646C397.161 57.8404 398.29 57.657 399.274 57.0958C400.257 56.5346 401.098 55.5171 401.797 54.0432ZM403.617 45.9049C403.948 43.5452 403.634 41.6699 402.676 40.2792C401.722 38.8693 400.414 38.0377 398.754 37.7844C396.977 37.5135 395.403 37.9352 394.031 39.0496C392.66 40.164 391.8 41.8307 391.453 44.0497L403.617 45.9049Z" fill="#A52A2A"/>
<path d="M437.867 39.0261L446.403 40.9913L448.309 64.0938L460.735 44.2906L469.043 46.2032L451.091 72.7898L447.866 77.6083C446.722 79.2086 445.711 80.3985 444.832 81.1781C443.973 81.9621 443.053 82.542 442.074 82.9177C441.109 83.3168 439.977 83.5372 438.679 83.5789C437.399 83.625 435.998 83.4728 434.475 83.1223C432.934 82.7674 431.461 82.258 430.057 81.594L430.903 75.176C432.097 75.7116 433.199 76.0955 434.208 76.3277C436.073 76.7571 437.59 76.5252 438.759 75.632C439.923 74.7577 440.953 73.5321 441.85 71.955L437.867 39.0261Z" fill="#A52A2A"/>
<path d="M468.78 61.8048C469.584 59.1914 471.011 56.846 473.06 54.7688C475.109 52.6916 477.515 51.3452 480.279 50.7295C483.061 50.1191 485.918 50.2302 488.849 51.0627C493.377 52.3487 496.636 54.868 498.628 58.6205C500.625 62.3544 500.937 66.4521 499.564 70.9136C498.18 75.4124 495.565 78.7296 491.721 80.8653C487.901 82.9876 483.774 83.4191 479.34 82.1597C476.597 81.3806 474.166 80.0202 472.046 78.0784C469.945 76.142 468.611 73.8043 468.045 71.0654C467.483 68.3078 467.729 65.2209 468.78 61.8048ZM476.767 64.53C475.859 67.4795 475.869 69.9383 476.795 71.9066C477.722 73.8749 479.219 75.1525 481.285 75.7395C483.352 76.3265 485.322 76.0334 487.195 74.8602C489.086 73.6924 490.492 71.6151 491.411 68.6283C492.307 65.7162 492.292 63.276 491.365 61.3078C490.458 59.3448 488.97 58.0699 486.904 57.4829C484.837 56.8959 482.858 57.1863 480.966 58.3541C479.074 59.522 477.675 61.5806 476.767 64.53Z" fill="#A52A2A"/>
<path d="M519.935 94.3497L521.556 89.9823C519.906 91.1719 518.038 91.9149 515.949 92.2112C513.88 92.5138 511.875 92.333 509.934 91.6688C507.957 90.9919 506.343 89.9542 505.091 88.5558C503.84 87.1575 503.152 85.5598 503.027 83.7629C502.902 81.966 503.349 79.6941 504.368 76.9473L511.216 58.4889L519.004 61.1554L514.032 74.5597C512.51 78.6616 511.715 81.2269 511.646 82.2557C511.602 83.2726 511.857 84.1853 512.41 84.9941C512.971 85.7845 513.833 86.379 514.997 86.7775C516.328 87.233 517.652 87.284 518.97 86.9304C520.295 86.5585 521.349 85.9079 522.131 84.9787C522.92 84.0311 524.089 81.4698 525.637 77.2947L530.202 64.989L537.991 67.6555L527.17 96.8264L519.935 94.3497Z" fill="#A52A2A"/>
<path d="M555.444 96.0847L548.512 93.3009C548.922 92.3086 549.174 91.705 549.267 91.4901C550.234 89.2693 551.4 87.5917 552.767 86.4574C554.133 85.323 556.321 84.3079 559.329 83.4121C562.338 82.5163 564.18 81.8782 564.857 81.4977C565.909 80.8894 566.665 80.0569 567.125 79.0002C567.764 77.5316 567.711 76.0378 566.967 74.5187C566.249 72.989 564.883 71.8202 562.872 71.0124C560.932 70.2336 559.072 70.1285 557.292 70.697C555.512 71.2655 553.89 72.5708 552.427 74.613L545.786 70.9368C547.381 67.8111 549.942 65.6419 553.472 64.4294C557.02 63.2242 560.878 63.4585 565.047 65.1324C569.433 66.8936 572.427 69.4319 574.029 72.7471C575.639 76.0444 575.79 79.1975 574.481 82.2063C573.756 83.8719 572.59 85.2551 570.983 86.3559C569.393 87.4639 566.483 88.6726 562.251 89.9819C560.062 90.6594 558.592 91.3211 557.843 91.967C557.111 92.6201 556.312 93.9926 555.444 96.0847ZM544.093 103.456L547.378 95.9068L555.017 98.9744L551.733 106.523L544.093 103.456Z" fill="#A52A2A"/>
</svg>
